# xmcd CD database file
#
# Track frame offsets:
#	150
#	19288
#	41027
#	56199
#	78824
#	100974
#	120531
#	146967
#	168651
#	188190
#	206255
#	238384
#	258724
#
# Disc length: 3717 seconds
#
# Revision: 2
# Processed by: cddbd v1.5.2PL0 Copyright (c) Steve Scherf et al.
# Submitted via: CDex 1.51
#
DISCID=c30e830d
DTITLE=Muggsy Spanier - Sentimental Journey [CD4)
DYEAR=2002
DGENRE=Jazz
TTITLE0=Royal Garden blues
TTITLE1=Basin Street Blues
TTITLE2=Dippermouth Blues
TTITLE3=Squeeze Me
TTITLE4=Rose Room
TTITLE5=St. Louis Blues
TTITLE6=Riverside Blues
TTITLE7=Farewell Blues
TTITLE8=If I had You
TTITLE9=Sister Kate
TTITLE10=Moonglow
TTITLE11=That Da Da Strain
TTITLE12=Memphis Blues
EXTD=YEAR: 2002
EXTT0=
EXTT1=
EXTT2=
EXTT3=
EXTT4=
EXTT5=
EXTT6=
EXTT7=
EXTT8=
EXTT9=
EXTT10=
EXTT11=
EXTT12=
PLAYORDER=
